<svg width="190" height="198" viewBox="0 0 190 198" fill="#2563eb" xmlns="http://www.w3.org/2000/svg">
<path d="M98.5702 110.332C96.245 110.332 94.0267 110.332 91.616 110.332C91.616 108.144 91.5977 106.026 91.6191 103.908C91.793 86.6671 91.9822 69.4295 92.147 52.1889C92.1622 50.5134 92.1165 48.8287 91.9853 47.1592C91.7015 43.5671 90.1727 42.1662 86.5812 42.2547C83.5328 42.331 80.4814 42.4684 77.4391 42.685C62.1942 43.7654 47.1568 46.2131 32.2689 49.6313C31.8813 49.7199 31.4877 49.7748 30.6943 49.9152C31.3351 48.7951 31.7867 47.9314 32.3055 47.1074C37.4807 38.8975 44.8438 33.169 53.3603 28.8443C67.3267 21.7515 82.2787 19.1116 97.8165 19.5022C112.036 19.8593 125.658 22.8075 138.272 29.6104C146.597 34.0998 153.719 39.9505 158.567 48.2549C158.747 48.5632 158.927 48.8714 159.089 49.1858C159.156 49.317 159.181 49.4696 159.291 49.8389C158.775 49.7595 158.366 49.7229 157.969 49.6313C143.029 46.2223 127.946 43.741 112.646 42.6789C109.552 42.4653 106.452 42.3158 103.352 42.2578C100.123 42.1967 98.4787 43.4694 98.32 46.6526C98.0698 51.6731 98.1003 56.715 98.1461 61.7446C98.2834 77.4593 98.4787 93.1708 98.6496 108.885C98.6526 109.34 98.6007 109.786 98.5702 110.332Z" fill="#2563eb"/>
<path d="M73.0421 108.037C71.1594 107.549 69.3407 107.124 67.5495 106.603C56.4607 103.361 46.3147 98.3867 38.1063 90.0639C30.9294 82.785 26.7093 74.1753 27.0327 63.7162C27.0846 62.0468 27.4416 60.3896 27.6003 58.7232C27.6949 57.7465 28.2014 57.3864 29.1291 57.1789C41.7589 54.3863 54.5291 52.6375 67.4458 51.9539C69.8808 51.8257 72.3189 51.6609 74.754 51.6365C76.063 51.6243 77.4026 51.7616 78.6842 52.0363C81.4518 52.6345 82.9165 54.2459 82.825 57.0721C82.7243 60.1057 82.4374 63.1699 81.8394 66.1425C79.1175 79.6903 76.2583 93.2105 73.4418 106.737C73.3625 107.121 73.213 107.491 73.0421 108.037Z" fill="#2563eb"/>
<path d="M116.998 107.921C116.14 104.213 115.213 100.627 114.49 97.0011C112.189 85.489 109.94 73.9648 107.737 62.4314C107.404 60.6948 107.291 58.8911 107.313 57.1209C107.346 54.2948 108.698 52.5979 111.459 52.0638C113.287 51.7098 115.201 51.5816 117.062 51.6548C131.669 52.2347 146.148 53.8767 160.447 57.0202C162.107 57.3865 162.528 58.1769 162.751 59.6052C164.414 70.3085 161.082 79.4828 154.167 87.5156C147.259 95.5423 138.443 100.783 128.648 104.463C125.328 105.711 121.868 106.6 118.469 107.637C118.047 107.772 117.599 107.811 116.998 107.921Z" fill="#2563eb"/>
<path d="M97.0264 178.498C91.2805 178.498 85.7941 178.477 80.3107 178.519C79.3098 178.528 79.1725 177.884 78.9406 177.216C76.2553 169.437 73.5701 161.654 70.8818 153.875C70.6712 153.27 70.4393 152.672 70.0762 151.698C69.7497 152.602 69.5422 153.151 69.353 153.71C66.7105 161.453 64.0374 169.186 61.4651 176.951C61.0501 178.208 60.4642 178.55 59.2009 178.528C54.4742 178.452 49.7476 178.492 45.0209 178.492C44.5358 178.492 44.0506 178.492 43.3457 178.492C44.9324 174.295 46.4215 170.364 47.9106 166.433C51.908 155.886 55.9298 145.347 59.8753 134.778C60.3421 133.527 60.925 133.1 62.2706 133.121C67.6076 133.207 72.9445 133.17 78.2815 133.149C79.1237 133.146 79.6363 133.289 79.9903 134.208C85.5042 148.527 91.0669 162.829 96.6114 177.137C96.7517 177.503 96.8402 177.888 97.0264 178.498Z" fill="#2563eb"/>
<path d="M158.653 152.153C157.06 156.804 155.467 161.453 153.877 166.104C152.596 169.855 151.339 173.615 150.002 177.347C149.837 177.808 149.258 178.44 148.861 178.446C143.38 178.519 137.897 178.495 132.167 178.495C132.374 177.875 132.514 177.417 132.682 176.969C137.949 163.043 143.249 149.126 148.455 135.175C149.053 133.576 149.81 133.066 151.513 133.109C156.694 133.24 161.884 133.17 167.069 133.139C167.938 133.133 168.424 133.365 168.762 134.244C174.362 148.753 179.998 163.25 185.621 177.75C185.676 177.887 185.676 178.046 185.731 178.348C185.338 178.4 184.962 178.489 184.587 178.489C179.604 178.498 174.621 178.455 169.641 178.522C168.463 178.538 167.978 178.119 167.612 177.036C164.954 169.192 162.232 161.367 159.526 153.539C159.361 153.066 159.175 152.602 158.995 152.135C158.882 152.144 158.766 152.15 158.653 152.153Z" fill="#2563eb"/>
<path d="M35.4729 178.397C29.309 178.397 23.3404 178.397 17.1766 178.397C17.1766 167.804 17.1766 157.265 17.1766 146.571C12.7886 146.571 8.59291 146.571 4.26904 146.571C4.26904 142.082 4.26904 137.745 4.26904 133.283C18.7603 133.283 33.2576 133.283 47.8617 133.283C47.8617 137.653 47.8617 141.993 47.8617 146.501C43.7453 146.501 39.7052 146.501 35.4729 146.501C35.4729 157.204 35.4729 167.746 35.4729 178.397Z" fill="#2563eb"/>
<path d="M124.199 178.403C117.941 178.403 112.012 178.403 105.888 178.403C105.888 167.764 105.888 157.214 105.888 146.501C101.497 146.501 97.3009 146.501 93.0076 146.501C93.0076 142.036 93.0076 137.739 93.0076 133.298C107.505 133.298 122.002 133.298 136.725 133.298C136.725 134.251 136.725 135.197 136.725 136.146C136.725 139.146 136.689 142.146 136.747 145.146C136.768 146.205 136.438 146.568 135.364 146.547C132.212 146.489 129.06 146.526 125.908 146.526C125.408 146.526 124.907 146.526 124.199 146.526C124.199 157.201 124.199 167.746 124.199 178.403Z" fill="#2563eb"/>
</svg>
